HIERARCHY
ROOT hip
{
	OFFSET 0.000000 0.000000 0.000000 
	CHANNELS 6 Xposition Yposition Zposition Xrotation Zrotation Yrotation
	JOINT abdomen
	{
		OFFSET 0.000000 3.402643 0.000000 
		CHANNELS 3 Xrotation Zrotation Yrotation
		JOINT chest
		{
			OFFSET 0.000000 8.438565 -0.680529 
			CHANNELS 3 Xrotation Zrotation Yrotation
			JOINT neck
			{
				OFFSET 0.000000 10.207942 -0.272212 
				CHANNELS 3 Xrotation Zrotation Yrotation
				JOINT head
				{
					OFFSET 0.000000 3.130431 0.000000 
					CHANNELS 3 Xrotation Zrotation Yrotation
					End Site
					{
						OFFSET 0.000000 3.130435 0.000000 
					}
				}
			}
			JOINT lCollar
			{
				OFFSET 3.470700 6.669187 -0.816635 
				CHANNELS 3 Yrotation Zrotation Xrotation
				JOINT lShldr
				{
					OFFSET 3.198488 0.000000 0.000000 
					CHANNELS 3 Zrotation Yrotation Xrotation
					JOINT lForeArm
					{
						OFFSET 10.139888 0.000000 0.000000 
						CHANNELS 3 Yrotation Zrotation Xrotation
						JOINT lHand
						{
							OFFSET 8.370511 0.000000 0.000000 
							CHANNELS 3 Zrotation Yrotation Xrotation
							End Site
							{
								OFFSET 4.083176 0.000000 0.000000 
							}
						}
					}
				}
			}
			JOINT rCollar
			{
				OFFSET -3.470700 6.669187 -0.816635 
				CHANNELS 3 Yrotation Zrotation Xrotation
				JOINT rShldr
				{
					OFFSET -3.198488 0.000000 0.000000 
					CHANNELS 3 Zrotation Yrotation Xrotation
					JOINT rForeArm
					{
						OFFSET -10.139888 0.000000 0.000000 
						CHANNELS 3 Yrotation Zrotation Xrotation
						JOINT rHand
						{
							OFFSET -8.370511 0.000000 0.000000 
							CHANNELS 3 Zrotation Yrotation Xrotation
							End Site
							{
								OFFSET -4.083176 0.000000 0.000000 
							}
						}
					}
				}
			}
		}
	}
	JOINT lThigh
	{
		OFFSET 5.308129 -1.633274 1.361059 
		CHANNELS 3 Xrotation Zrotation Yrotation
		JOINT lShin
		{
			OFFSET -2.041588 -20.007561 0.000000 
			CHANNELS 3 Xrotation Zrotation Yrotation
			JOINT lFoot
			{
				OFFSET 0.000000 -19.190928 -1.224953 
				CHANNELS 3 Xrotation Yrotation Zrotation
				End Site
				{
					OFFSET 0.000000 -2.449906 4.627600 
				}
			}
		}
	}
	JOINT rThigh
	{
		OFFSET -5.308129 -1.633274 1.361059 
		CHANNELS 3 Xrotation Zrotation Yrotation
		JOINT rShin
		{
			OFFSET 2.041588 -20.007561 0.000000 
			CHANNELS 3 Xrotation Zrotation Yrotation
			JOINT rFoot
			{
				OFFSET 0.000000 -19.190928 -1.224953 
				CHANNELS 3 Xrotation Yrotation Zrotation
				End Site
				{
					OFFSET 0.000000 -2.449906 4.627600 
				}
			}
		}
	}
}
MOTION
Frames: 8
Frame Time: 0.011111
81.227707 51.246483 1.775772 -1.760219 4.270042 -91.113846 16.324230 -7.042801 2.515369 -30.721409 0.859003 1.173472 -12.735842 -4.906339 -2.772822 15.358493 15.401485 -5.528056 -10.275489 -5.709454 -1.550532 -76.309601 -15.507120 -22.724384 -59.740692 9.250546 12.283198 8.524705 12.647240 -86.165421 5.831508 6.350754 -0.460990 79.381989 19.343327 -21.765039 52.794739 -8.293316 9.299577 -8.534408 -12.637552 41.175640 -6.404690 4.393327 0.351831 30.154186 -5.318379 -4.883920 -31.573751 -6.146911 -5.121046 -11.873184 -7.723492 -2.335891 29.967066 5.321766 4.809987 -30.910543 -0.232219 1.405068 
81.188881 51.330547 1.802779 -1.745217 4.070390 -90.765656 16.664898 -6.766866 2.300451 -30.770033 0.667104 1.115082 -12.977567 -5.190145 -2.718660 15.698814 15.804277 -5.461961 -10.275489 -5.709454 -1.550532 -76.323433 -15.440073 -21.042088 -59.494518 9.225874 12.178416 8.524705 12.647240 -82.024796 5.831508 6.350754 -0.460990 79.365303 19.321693 -22.064152 52.637280 -8.264512 9.236425 -8.534408 -12.637552 41.136578 -7.404490 4.126444 1.452897 31.292410 -5.259780 -4.999939 -31.243597 -4.173412 -3.905681 -10.923217 -7.750599 -2.517835 28.795006 5.394866 4.664828 -30.512215 -0.527335 1.270768 
81.147362 51.456474 1.820334 -1.690787 3.878286 -90.572617 16.974100 -6.496619 2.182406 -30.867561 0.506198 1.063112 -13.083843 -5.590993 -2.602451 15.924369 16.418692 -5.292844 -10.275489 -5.709454 -1.550532 -76.369919 -15.309589 -19.306820 -59.367527 9.216344 12.119683 8.524705 12.647240 -77.532608 5.831508 6.350754 -0.460990 79.337570 19.161003 -22.339958 52.459297 -8.234230 9.170780 -8.534408 -12.637552 40.843605 -7.816055 4.049358 2.172776 31.731529 -5.230641 -5.060544 -30.896002 -3.059301 -3.278628 -10.279792 -7.712107 -2.566233 28.175629 5.418590 4.576521 -30.375278 -0.744248 1.194945 
81.116966 51.428795 1.826074 -1.652338 3.643856 -90.589668 17.262083 -6.350744 2.235565 -30.965004 0.362436 1.078544 -13.149004 -5.851955 -2.542878 16.192753 16.906904 -5.206213 -10.275489 -5.709454 -1.550532 -76.344505 -15.195199 -17.541296 -59.238983 9.202049 12.062548 8.524705 12.647240 -72.874405 5.831508 6.350754 -0.460990 79.361679 18.976860 -22.782814 52.238224 -8.188656 9.079176 -8.534408 -12.637552 40.384628 -7.596712 4.140179 1.890981 32.050205 -5.210972 -5.112173 -31.231497 -3.542246 -3.556635 -9.702380 -7.623122 -2.399555 27.621571 5.462789 4.497980 -30.227036 -0.995337 1.071896 
81.064644 51.419674 1.820673 -1.643190 3.318218 -90.828392 17.549234 -6.360336 2.443358 -30.955046 0.310539 1.143345 -13.301213 -6.041804 -2.496595 16.599123 17.260735 -5.116269 -10.275489 -5.709454 -1.550532 -76.348450 -15.176042 -15.800459 -59.142971 9.191982 12.016605 8.524705 12.647240 -68.167366 5.831508 6.350754 -0.460990 79.351830 18.828106 -23.117701 52.038826 -8.149181 8.995622 -8.534408 -12.637552 40.091652 -7.200070 4.185029 2.102065 32.238327 -5.205908 -5.147621 -31.425283 -3.590686 -3.543497 -9.105625 -7.514558 -2.143893 27.222118 5.467909 4.463271 -30.108414 -1.106139 1.039129 
81.011978 51.408199 1.838565 -1.588000 2.691517 -90.979256 18.225512 -6.222157 2.609571 -31.003613 0.181127 1.206904 -13.365634 -6.262222 -2.436071 16.796486 17.611748 -5.032134 -10.275489 -5.709454 -1.550532 -76.468285 -15.069579 -12.528991 -59.091614 9.193397 12.000204 8.524705 12.647240 -59.056042 5.831508 6.350754 -0.460990 79.316864 18.646904 -23.263367 51.912697 -8.123004 8.944285 -8.534408 -12.637552 39.915874 -6.392900 4.099191 2.093610 32.129383 -5.211022 -5.120029 -31.560951 -3.048374 -3.207036 -8.287811 -7.448111 -2.130899 27.120739 5.477249 4.456583 -30.109404 -1.025129 1.097626 
80.961678 51.414948 1.844304 -1.575791 2.718623 -91.146561 18.069868 -6.167174 2.802044 -30.896036 0.076401 1.257890 -13.332951 -6.508065 -2.382927 16.835943 18.026615 -4.957053 -10.275489 -5.709454 -1.550532 -76.305954 -15.287374 -13.531745 -58.835865 9.166997 11.885235 8.524705 12.647240 -60.774792 5.831508 6.350754 -0.460990 79.333725 18.442242 -23.540180 51.755512 -8.090714 8.872863 -8.534408 -12.637552 39.613140 -6.354650 4.041055 2.042859 32.088715 -5.216194 -5.126843 -31.679302 -2.687609 -2.967721 -8.228815 -7.418420 -2.081717 27.003258 5.467367 4.434210 -30.031836 -0.969575 1.126559 
80.919144 51.420349 1.849706 -1.618691 2.795439 -91.208992 17.888773 -6.183887 2.912667 -30.866653 0.000247 1.285901 -13.399480 -6.785338 -2.307238 17.071957 18.473152 -4.838024 -10.275489 -5.709454 -1.550532 -76.180183 -15.422585 -13.895696 -58.770863 9.156497 11.853618 8.524705 12.647240 -61.585335 5.831508 6.350754 -0.460990 79.332535 18.225634 -23.979593 51.493690 -8.038611 8.769479 -8.534408 -12.637552 39.212749 -6.345514 3.973159 1.993022 32.049461 -5.216090 -5.113636 -31.753096 -2.644820 -2.927381 -8.250516 -7.479062 -2.101242 26.921822 5.478115 4.419020 -29.993113 -0.926221 1.158075 
